#N canvas 12 81 1905 998 10;
#X obj 72 -120 tgl 15 0 empty empty empty 17 7 0 10 -262144 -1 -1 0
1;
#X obj 390 -329 adc~;
#X obj 257 120 dac~;
#X obj 735 -579 loadbang;
#X obj 737 -551 delay 100;
#X obj 558 -273 s reverb_on_off;
#X obj 694 -271 s vibrato_on_off;
#X obj 182 -121 tgl 15 0 empty empty empty 17 7 0 10 -262144 -1 -1
0 1;
#X obj 179 -150 r vibrato_on_off;
#X msg 733 -514 \; pd dsp 1 \;;
#X obj 315 -119 tgl 15 0 empty empty empty 17 7 0 10 -262144 -1 -1
0 1;
#X obj 304 -149 r straight_on_off;
#X obj 832 -270 s straight_on_off;
#X obj 972 -269 s sat_on_off;
#X obj 431 -149 r sat_on_off;
#X obj 464 -123 tgl 15 0 empty empty empty 17 7 0 10 -262144 -1 -1
0 1;
#X obj 563 -123 tgl 15 0 empty empty empty 17 7 0 10 -262144 -1 -1
0 1;
#X obj 1074 -267 s wahwah_on_off;
#X obj 542 -148 r wahwah_on_off;
#X obj 1205 -263 s drum_on_off;
#X obj 683 -149 r drum_on_off;
#X obj 689 -119 tgl 15 0 empty empty empty 17 7 0 10 -262144 -1 -1
0 1;
#X obj 1313 -262 s stepvib_on_off;
#X obj 789 -149 r stepvib_on_off;
#X obj 796 -120 tgl 15 0 empty empty empty 17 7 0 10 -262144 -1 -1
0 1;
#N canvas 244 94 450 300 reverb_proc 0;
#X obj 15 4 inlet~;
#X obj 80 3 inlet;
#X obj 176 265 outlet~;
#X obj 29 111 *~;
#X obj 67 148 delwrite~ reverb 500;
#X obj 178 237 *~ 0.5;
#X obj 166 179 delread~ reverb 400;
#X obj 41 36 pack 0 50;
#X obj 51 86 line~;
#X connect 0 0 3 0;
#X connect 1 0 7 0;
#X connect 3 0 4 0;
#X connect 5 0 4 0;
#X connect 5 0 2 0;
#X connect 6 0 5 0;
#X connect 7 0 8 0;
#X connect 8 0 3 1;
#X restore 42 -96 pd reverb_proc;
#N canvas 433 104 534 402 vibrato_proc 0;
#X obj 148 61 *~;
#X obj 265 207 vd~ vib;
#X obj 121 155 delwrite~ vib 1000;
#X obj 264 181 +~ 8;
#X obj 264 155 *~ 4;
#X obj 227 35 osc~ 3;
#X obj 170 13 pack 0 50;
#X obj 170 35 line~;
#X obj 220 63 *~;
#X obj 267 239 *~ 0.5;
#X obj 106 -26 inlet~;
#X obj 187 -26 inlet;
#X obj 160 295 outlet~;
#X connect 0 0 2 0;
#X connect 1 0 9 0;
#X connect 3 0 1 0;
#X connect 4 0 3 0;
#X connect 5 0 8 0;
#X connect 6 0 7 0;
#X connect 7 0 0 1;
#X connect 7 0 8 1;
#X connect 8 0 4 0;
#X connect 9 0 12 0;
#X connect 10 0 0 0;
#X connect 11 0 6 0;
#X restore 155 -94 pd vibrato_proc;
#N canvas 548 98 450 300 straight_proc 0;
#X obj 154 40 *~;
#X obj 167 11 line~;
#X obj 166 -10 pack 0 50;
#X obj 79 -41 inlet~;
#X obj 182 -40 inlet;
#X obj 151 155 outlet~;
#X obj 152 103 *~ 0.6;
#X connect 0 0 6 0;
#X connect 1 0 0 1;
#X connect 2 0 1 0;
#X connect 3 0 0 0;
#X connect 4 0 2 0;
#X connect 6 0 5 0;
#X restore 286 -93 pd straight_proc;
#N canvas 48 81 1871 998 sat_proc 0;
#X obj 138 35 *~;
#X obj 163 11 line~;
#X obj 166 -12 pack 0 50;
#X obj 80 -42 inlet~;
#X obj 176 -41 inlet;
#X obj 115 276 outlet~;
#X obj 144 132 *~ 6;
#X obj 137 179 clip~ -0.6 0.6;
#X obj 145 241 *~ 0.035;
#X obj 133 77 lop~ 250;
#X obj 233 76 hip~ 250;
#X obj 248 131 *~ 25;
#X obj 304 177 clip~ -0.2 0.2;
#X connect 0 0 9 0;
#X connect 0 0 10 0;
#X connect 1 0 0 1;
#X connect 2 0 1 0;
#X connect 3 0 0 0;
#X connect 4 0 2 0;
#X connect 6 0 7 0;
#X connect 7 0 8 0;
#X connect 8 0 5 0;
#X connect 9 0 6 0;
#X connect 10 0 11 0;
#X connect 11 0 12 0;
#X connect 12 0 8 0;
#X restore 434 -91 pd sat_proc;
#N canvas 732 98 450 300 wahwah_proc 0;
#X obj 95 17 *~;
#X obj 134 157 +~ 220;
#X obj 158 94 *~ 0.5;
#X obj 173 62 +~ 1;
#X obj 109 195 vcf~ 10;
#X obj 137 127 *~ 2300;
#X obj 191 -8 osc~ 6;
#X obj 133 -31 pack 0 50;
#X obj 131 -6 line~;
#X obj 176 34 *~;
#X obj 67 -59 inlet~;
#X obj 147 -58 inlet;
#X obj 115 220 outlet~;
#X connect 0 0 4 0;
#X connect 1 0 4 1;
#X connect 2 0 5 0;
#X connect 3 0 2 0;
#X connect 4 0 12 0;
#X connect 5 0 1 0;
#X connect 6 0 9 0;
#X connect 7 0 8 0;
#X connect 8 0 0 1;
#X connect 8 0 9 1;
#X connect 9 0 3 0;
#X connect 10 0 0 0;
#X connect 11 0 7 0;
#X restore 548 -97 pd wahwah_proc;
#N canvas 846 99 450 300 drum_proc 0;
#X obj 195 151 line~;
#X obj 177 113 0.5;
#X obj 98 112 line~;
#X obj 95 142 osc~;
#X obj 114 183 *~;
#X obj 69 212 lop~ 1000;
#X msg 228 116 1 \, 0 100;
#X obj 40 239 *~ 0.5;
#X msg 114 73 220 \, 50 100;
#X obj 152 38 metro 500;
#X obj 155 5 inlet;
#X obj 40 274 outlet~;
#X connect 0 0 4 1;
#X connect 1 0 3 1;
#X connect 2 0 3 0;
#X connect 3 0 4 0;
#X connect 4 0 5 0;
#X connect 5 0 7 0;
#X connect 6 0 0 0;
#X connect 7 0 11 0;
#X connect 8 0 2 0;
#X connect 9 0 6 0;
#X connect 9 0 1 0;
#X connect 9 0 8 0;
#X connect 10 0 9 0;
#X restore 660 -94 pd drum_proc;
#N canvas 576 305 450 380 stepvib_proc 0;
#X obj 64 -11 *~;
#X obj 18 62 delwrite~ \$0-delstep 2000;
#N canvas 858 484 450 300 stepdepth 0;
#X obj 61 29 inlet;
#X obj 114 29 inlet;
#X obj 80 117 /;
#X obj 114 79 t b f;
#X msg 83 154 \$1 100;
#X obj 81 189 line~;
#X obj 80 225 outlet~;
#X connect 0 0 2 0;
#X connect 1 0 3 0;
#X connect 2 0 4 0;
#X connect 3 0 2 0;
#X connect 3 1 2 1;
#X connect 4 0 5 0;
#X connect 5 0 6 0;
#X restore 173 -76 pd stepdepth;
#X obj 179 32 *~;
#N canvas 1034 610 450 300 trapez 0;
#X obj 102 5 inlet~;
#X obj 104 84 phasor~ 1;
#X obj 106 119 -~ 0.5;
#X obj 110 155 *~ 2;
#X obj 114 190 abs~;
#X obj 122 251 clip~ 0 0.5;
#X obj 124 279 outlet~;
#X msg 171 60 0.625;
#X msg 174 31 0.125;
#X obj 117 222 -~ 0.25;
#X connect 0 0 1 0;
#X connect 1 0 2 0;
#X connect 2 0 3 0;
#X connect 3 0 4 0;
#X connect 4 0 9 0;
#X connect 5 0 6 0;
#X connect 7 0 1 1;
#X connect 8 0 1 1;
#X connect 9 0 5 0;
#X restore 199 -27 pd trapez;
#X obj 193 64 vd~ \$0-delstep 2000;
#X obj 258 97 *~ 0.4;
#X obj 252 131 hip~ 40;
#X msg 152 -121 453;
#X msg 194 -123 2.5;
#X obj 70 -122 pack 0 50;
#X obj 70 -100 line~;
#X obj 25 -155 inlet~;
#X obj 100 -155 inlet;
#X obj 198 178 outlet~;
#X connect 0 0 1 0;
#X connect 2 0 3 0;
#X connect 3 0 5 0;
#X connect 4 0 3 1;
#X connect 5 0 6 0;
#X connect 6 0 7 0;
#X connect 7 0 14 0;
#X connect 8 0 2 0;
#X connect 9 0 2 1;
#X connect 9 0 4 0;
#X connect 10 0 11 0;
#X connect 11 0 0 1;
#X connect 12 0 0 0;
#X connect 13 0 10 0;
#X connect 13 0 8 0;
#X connect 13 0 9 0;
#X restore 761 -93 pd stepvib_proc;
#X obj 1457 -260 s tremolo_on_off;
#X obj 917 -147 r tremolo_on_off;
#X obj 925 -119 tgl 15 0 empty empty empty 17 7 0 10 -262144 -1 -1
0 1;
#N canvas 286 298 726 608 tremolo_proc 0;
#X obj 144 316 *~;
#X obj 135 12 inlet~;
#X obj 212 14 inlet;
#X obj 144 372 outlet~;
#X obj 242 197 clip~ -1 1;
#X text 292 81 <-- Sine wave (between -1 and 1);
#X text 281 146 <-- Multipled by a positive number X;
#X text 303 160 (between -X and X);
#X text 313 197 <-- Trim at -1 and 1;
#X text 336 211 (the sine wave tends to become;
#X text 382 296 <-- Normalize between 0 and 1;
#X text 294 107 Number X (between 1 and 20 \, log);
#X obj 233 235 *~;
#X obj 234 270 +~;
#X obj 305 309 expr 1-$f1;
#X floatatom 305 331 5 0 0 0 - - -;
#X text 405 308 and adjust depth;
#X text 493 107 ("Shape");
#X obj 138 202 *~;
#X obj 242 146 *~ 12;
#X msg 344 235 0.239;
#X obj 185 51 pack 0 50;
#X obj 175 90 line~;
#X msg 283 51 15;
#X obj 241 80 osc~;
#X connect 0 0 3 0;
#X connect 1 0 18 0;
#X connect 2 0 21 0;
#X connect 2 0 23 0;
#X connect 2 0 20 0;
#X connect 4 0 12 0;
#X connect 12 0 13 0;
#X connect 13 0 0 1;
#X connect 14 0 13 1;
#X connect 14 0 15 0;
#X connect 18 0 0 0;
#X connect 19 0 4 0;
#X connect 20 0 12 1;
#X connect 20 0 14 0;
#X connect 21 0 22 0;
#X connect 22 0 18 1;
#X connect 23 0 24 0;
#X connect 24 0 19 0;
#X restore 904 -92 pd tremolo_proc;
#N canvas 347 637 450 416 freqshift_proc 0;
#X obj 231 202 cos~;
#X obj 300 153 +~ -0.25;
#X obj 301 198 cos~;
#X obj 84 247 *~;
#X obj 149 247 *~;
#X obj 83 271 -~;
#N canvas 404 588 600 388 hilbert 0;
#X obj 166 190 biquad~ 0.83774 -0.06338 0.06338 -0.83774 1;
#X obj 166 164 biquad~ 1.94632 -0.94657 0.94657 -1.94632 1;
#X obj 99 111 biquad~ -0.02569 0.260502 -0.260502 0.02569 1;
#X obj 99 137 biquad~ 1.8685 -0.870686 0.870686 -1.8685 1;
#X obj 98 76 inlet~;
#X obj 166 213 outlet~;
#X obj 99 213 outlet~;
#X text 95 261 This is a pair of all-pass filters whose outputs somehow
manage to be about 90 degrees out of phase from each other. I don't
know what phase relation they have with the original signal. I adapted
this from a 4X patch by Emmanuel Favreau \, circa 1982;
#X connect 0 0 5 0;
#X connect 1 0 0 0;
#X connect 2 0 3 0;
#X connect 3 0 6 0;
#X connect 4 0 1 0;
#X connect 4 0 2 0;
#X restore 84 209 pd hilbert;
#X obj 75 357 outlet~;
#X obj 139 -31 inlet~;
#X obj 216 -29 inlet;
#X obj 142 159 *~;
#X obj 189 8 pack 0 50;
#X obj 179 47 line~;
#X obj 85 313 *~ 0.4;
#X obj 275 89 phasor~ 400;
#X connect 0 0 3 1;
#X connect 1 0 2 0;
#X connect 2 0 4 1;
#X connect 3 0 5 0;
#X connect 4 0 5 1;
#X connect 5 0 13 0;
#X connect 6 0 3 0;
#X connect 6 1 4 0;
#X connect 8 0 10 0;
#X connect 9 0 11 0;
#X connect 10 0 6 0;
#X connect 11 0 12 0;
#X connect 12 0 10 1;
#X connect 13 0 7 0;
#X connect 14 0 1 0;
#X connect 14 0 0 0;
#X restore 1076 -90 pd freqshift_proc;
#X obj 1087 -123 tgl 15 0 empty empty empty 17 7 0 10 -262144 -1 -1
0 1;
#X obj 1080 -146 r freqshift_on_off;
#X obj 1589 -261 s freqshift_on_off;
#X obj 1265 -116 tgl 15 0 empty empty empty 17 7 0 10 -262144 -1 -1
0 1;
#X obj 1233 -148 r vide_on_off;
#N canvas 443 251 737 545 vide_proc 0;
#X obj 106 374 outlet~;
#X obj 110 104 inlet~;
#X obj 187 106 inlet;
#X obj 113 294 *~;
#X obj 160 143 pack 0 50;
#X obj 150 182 line~;
#X connect 1 0 3 0;
#X connect 2 0 4 0;
#X connect 3 0 0 0;
#X connect 4 0 5 0;
#X connect 5 0 3 1;
#X restore 1269 -90 pd vide_proc;
#X obj 1730 -262 s vide_on_off;
#X obj 743 -419 route 0 1 2 3 4 5 6 7 8 9;
#X obj 66 -153 r reverb_on_off;
#X obj 739 -462 netreceive 3010;
#X connect 0 0 25 1;
#X connect 1 0 25 0;
#X connect 1 0 26 0;
#X connect 1 0 27 0;
#X connect 1 0 28 0;
#X connect 1 0 29 0;
#X connect 1 0 31 0;
#X connect 1 0 35 0;
#X connect 1 0 36 0;
#X connect 1 0 42 0;
#X connect 1 1 25 0;
#X connect 1 1 26 0;
#X connect 1 1 27 0;
#X connect 1 1 28 0;
#X connect 1 1 29 0;
#X connect 1 1 31 0;
#X connect 1 1 35 0;
#X connect 1 1 36 0;
#X connect 1 1 42 0;
#X connect 3 0 4 0;
#X connect 4 0 9 0;
#X connect 7 0 26 1;
#X connect 8 0 7 0;
#X connect 10 0 27 1;
#X connect 11 0 10 0;
#X connect 14 0 15 0;
#X connect 15 0 28 1;
#X connect 16 0 29 1;
#X connect 18 0 16 0;
#X connect 20 0 21 0;
#X connect 21 0 30 0;
#X connect 23 0 24 0;
#X connect 24 0 31 1;
#X connect 25 0 2 0;
#X connect 25 0 2 1;
#X connect 26 0 2 0;
#X connect 26 0 2 1;
#X connect 27 0 2 0;
#X connect 27 0 2 1;
#X connect 28 0 2 0;
#X connect 28 0 2 1;
#X connect 29 0 2 0;
#X connect 29 0 2 1;
#X connect 30 0 2 0;
#X connect 30 0 2 1;
#X connect 31 0 2 0;
#X connect 31 0 2 1;
#X connect 33 0 34 0;
#X connect 34 0 35 1;
#X connect 35 0 2 0;
#X connect 35 0 2 1;
#X connect 36 0 2 0;
#X connect 36 0 2 1;
#X connect 37 0 36 1;
#X connect 38 0 37 0;
#X connect 40 0 42 1;
#X connect 41 0 40 0;
#X connect 42 0 2 0;
#X connect 42 0 2 1;
#X connect 44 0 5 0;
#X connect 44 1 6 0;
#X connect 44 2 12 0;
#X connect 44 3 13 0;
#X connect 44 4 17 0;
#X connect 44 5 19 0;
#X connect 44 6 22 0;
#X connect 44 7 32 0;
#X connect 44 8 39 0;
#X connect 44 9 43 0;
#X connect 45 0 0 0;
#X connect 46 0 44 0;
